<svg width="1300" height="650" viewBox="0 0 1300 650" fill="none" xmlns="http://www.w3.org/2000/svg">
<path fill-rule="evenodd" clip-rule="evenodd" d="M680.364 83.7979C669.916 83.7979 659.731 80.525 651.238 74.439L560.428 9.35893C551.935 3.27288 541.75 0 531.302 0H50C22.3858 0 0 22.3859 0 50.0001V516.202C0 543.816 22.3857 566.202 50 566.202H345.953C356.401 566.202 366.586 569.475 375.079 575.561L478.947 649.999C478.947 649.999 478.947 650 478.947 650C478.947 650 478.947 650 478.948 650H1250C1277.61 650 1300 627.614 1300 600V133.798C1300 106.184 1277.61 83.7979 1250 83.7979H680.364Z" fill="#D9D9D9"/>
</svg>
