<svg width="803" height="524" viewBox="0 0 803 524" fill="none" xmlns="http://www.w3.org/2000/svg">
<path fill-rule="evenodd" clip-rule="evenodd" d="M0 50C0 22.3858 22.3858 0 50 0H455C465.046 0 474.399 2.96254 482.235 8.06162C482.283 8.09297 482.346 8.09162 482.393 8.05814C482.441 8.02338 482.506 8.02338 482.555 8.05814L547.555 54.641C556.047 60.7271 566.233 64 576.681 64H723C767.183 64 803 99.8172 803 144V474C803 501.614 780.614 524 753 524H505H490H50C22.3857 524 0 501.614 0 474V50Z" fill="#D9D9D9"/>
</svg>
